<?xml version="1.0" encoding="utf-8"?>
<!-- Generator: Adobe Illustrator 25.1.0, SVG Export Plug-In . SVG Version: 6.00 Build 0)  -->
<svg version="1.1" id="Camada_1" xmlns="http://www.w3.org/2000/svg" xmlns:xlink="http://www.w3.org/1999/xlink" x="0px" y="0px"
	 viewBox="0 0 160 50" style="enable-background:new 0 0 160 50;" xml:space="preserve">
<style type="text/css">
	.st0{fill:#FFFFFF;}
	.st1{fill:#010202;}
	.st2{fill:#FFFFFF;filter:url(#Adobe_OpacityMaskFilter);}
	.st3{fill:#020203;}
	.st4{mask:url(#path-21-outside-1_2_);fill:#010202;stroke:#FFFFFF;stroke-width:0.1;}
	.st5{fill:url(#path64_1_);}
	.st6{fill:url(#path78_1_);}
	.st7{fill:url(#path88_1_);}
	.st8{fill:url(#path104_1_);}
</style>
<g id="download_play">
	<path id="Rectangle_5" class="st0" d="M5,0h150c2.76143,0,5,2.23858,5,5v40c0,2.76143-2.23857,5-5,5H5c-2.76142,0-5-2.23857-5-5V5
		C0,2.23858,2.23858,0,5,0z"/>
	<g id="Group_2_1_">
		<g id="path46">
			<path class="st1" d="M81.2809,26.986c-2.7573,0-5.0098,2.074-5.0098,4.936c0,2.838,2.25249,4.93401,5.0098,4.93401
				c2.7632,0,5.0157-2.09601,5.0157-4.93401C86.2966,29.06,84.0441,26.986,81.2809,26.986z M81.2809,34.912
				c-1.5129,0-2.8145-1.23401-2.8145-2.99001c0-1.78,1.3016-2.992,2.8145-2.992c1.513,0,2.8204,1.21201,2.8204,2.992
				C84.1013,33.67799,82.7939,34.912,81.2809,34.912z M70.35,26.986c-2.7631,0-5.0098,2.074-5.0098,4.936
				c0,2.838,2.2467,4.93401,5.0098,4.93401c2.7617,0,5.0098-2.09601,5.0098-4.93401C75.3598,29.06,73.1117,26.986,70.35,26.986z
				 M70.35,34.912c-1.5144,0-2.8204-1.23401-2.8204-2.99001c0-1.78,1.306-2.992,2.8204-2.992c1.513,0,2.8146,1.21201,2.8146,2.992
				C73.1646,33.67799,71.863,34.912,70.35,34.912z M57.3427,28.49899v2.097h5.0671c-0.1482,1.17201-0.5444,2.033-1.152,2.634
				c-0.7395,0.72501-1.8915,1.53-3.9151,1.53c-3.1183,0-5.5601-2.487-5.5601-5.569c0-3.08199,2.4418-5.56999,5.5601-5.56999
				c1.6861,0,2.9129,0.651,3.8183,1.49599l1.4953-1.478c-1.2664-1.195-2.951-2.114-5.3136-2.114
				c-4.2761,0-7.8698,3.439-7.8698,7.66599c0,4.22601,3.5937,7.66501,7.8698,7.66501c2.3112,0,4.0472-0.74901,5.4119-2.153
				c1.3985-1.382,1.8343-3.325,1.8343-4.895c0-0.487-0.0411-0.935-0.11449-1.30901H57.3427z M110.531,30.125
				c-0.41199-1.104-1.684-3.139-4.276-3.139c-2.568,0-4.70599,1.99999-4.70599,4.936c0,2.76401,2.116,4.93401,4.953,4.93401
				c2.293,0,3.617-1.382,4.161-2.187l-1.702-1.121c-0.568,0.81999-1.341,1.364-2.459,1.364c-1.111,0-1.908-0.50301-2.419-1.495
				l6.679-2.731L110.531,30.125z M103.722,31.76801c-0.057-1.903,1.496-2.87801,2.608-2.87801c0.872,0,1.611,0.431,1.858,1.048
				L103.722,31.76801z M98.2943,36.556h2.1957V22.052h-2.1957V36.556z M94.6991,28.08501H94.6257
				c-0.493-0.57701-1.4336-1.09901-2.6252-1.09901c-2.5005,0-4.78671,2.17001-4.78671,4.952c0,2.765,2.2862,4.918,4.78671,4.918
				c1.1916,0,2.13219-0.52701,2.6252-1.121h0.07339v0.707c0,1.88699-1.0199,2.901-2.66479,2.901
				c-1.3413,0-2.1733-0.957-2.5167-1.76201L87.6085,38.369c0.5503,1.308,2.0074,2.918,4.4258,2.918
				c2.5738,0,4.7456-1.49701,4.7456-5.13901v-8.862h-2.0808V28.08501z M92.1883,34.912c-1.5129,0-2.7793-1.25101-2.7793-2.974
				c0-1.739,1.2664-3.00801,2.7793-3.00801c1.491,0,2.6664,1.26901,2.6664,3.00801C94.8547,33.661,93.6793,34.912,92.1883,34.912z
				 M120.809,22.052h-5.25v14.504h2.189V31.06h3.061c2.432,0,4.816-1.739,4.816-4.505C125.625,23.791,123.235,22.052,120.809,22.052
				z M120.866,29.043h-3.118v-4.974h3.118c1.635,0,2.568,1.342,2.568,2.486C123.434,27.67799,122.501,29.043,120.866,29.043z
				 M134.39999,26.959c-1.58099,0-3.226,0.69-3.903,2.22l1.94301,0.80499c0.418-0.80499,1.187-1.06599,2-1.06599
				c1.136,0,2.28799,0.674,2.30499,1.86501V30.935c-0.396-0.226-1.24399-0.561-2.287-0.561
				c-2.09299,0-4.22499,1.13901-4.22499,3.263c0,1.944,1.714,3.196,3.64099,3.196c1.47301,0,2.28601-0.657,2.79701-1.422h0.07399
				v1.121H138.86v-5.563C138.86,28.397,136.91701,26.959,134.39999,26.959z M134.136,34.90601c-0.716,0-1.714-0.35001-1.714-1.22801
				c0-1.123,1.24501-1.55299,2.32201-1.55299c0.96399,0,1.416,0.21001,2.00099,0.487
				C136.57401,33.955,135.40401,34.90601,134.136,34.90601z M146.564,27.276l-2.517,6.287h-0.07399l-2.60201-6.287h-2.36101
				l3.90901,8.786l-2.231,4.89h2.28799L149,27.276H146.564z M126.829,36.556h2.195V22.052h-2.195V36.556z"/>
			<defs>
				<filter id="Adobe_OpacityMaskFilter" filterUnits="userSpaceOnUse" x="49.4229" y="21.475" width="99.65376" height="19.862">
					<feColorMatrix  type="matrix" values="1 0 0 0 0  0 1 0 0 0  0 0 1 0 0  0 0 0 1 0"/>
				</filter>
			</defs>
			<mask maskUnits="userSpaceOnUse" x="49.4229" y="21.475" width="99.65376" height="19.862" id="path-21-outside-1_2_">
				<rect x="48.2199" y="20.234" class="st2" width="101.492" height="22.2914"/>
				<path class="st3" d="M81.2809,26.986c-2.7573,0-5.0098,2.074-5.0098,4.936c0,2.838,2.25249,4.93401,5.0098,4.93401
					c2.7632,0,5.0157-2.09601,5.0157-4.93401C86.2966,29.06,84.0441,26.986,81.2809,26.986z M81.2809,34.912
					c-1.5129,0-2.8145-1.23401-2.8145-2.99001c0-1.78,1.3016-2.992,2.8145-2.992c1.513,0,2.8204,1.21201,2.8204,2.992
					C84.1013,33.67799,82.7939,34.912,81.2809,34.912z M70.35,26.986c-2.7631,0-5.0098,2.074-5.0098,4.936
					c0,2.838,2.2467,4.93401,5.0098,4.93401c2.7617,0,5.0098-2.09601,5.0098-4.93401C75.3598,29.06,73.1117,26.986,70.35,26.986z
					 M70.35,34.912c-1.5144,0-2.8204-1.23401-2.8204-2.99001c0-1.78,1.306-2.992,2.8204-2.992c1.513,0,2.8146,1.21201,2.8146,2.992
					C73.1646,33.67799,71.863,34.912,70.35,34.912z M57.3427,28.49899v2.097h5.0671c-0.1482,1.17201-0.5444,2.033-1.152,2.634
					c-0.7395,0.72501-1.8915,1.53-3.9151,1.53c-3.1183,0-5.5601-2.487-5.5601-5.569c0-3.08199,2.4418-5.56999,5.5601-5.56999
					c1.6861,0,2.9129,0.651,3.8183,1.49599l1.4953-1.478c-1.2664-1.195-2.951-2.114-5.3136-2.114
					c-4.2761,0-7.8698,3.439-7.8698,7.66599c0,4.22601,3.5937,7.66501,7.8698,7.66501c2.3112,0,4.0472-0.74901,5.4119-2.153
					c1.3985-1.382,1.8343-3.325,1.8343-4.895c0-0.487-0.0411-0.935-0.11449-1.30901H57.3427z M110.531,30.125
					c-0.41199-1.104-1.684-3.139-4.276-3.139c-2.568,0-4.70599,1.99999-4.70599,4.936c0,2.76401,2.116,4.93401,4.953,4.93401
					c2.293,0,3.617-1.382,4.161-2.187l-1.702-1.121c-0.568,0.81999-1.341,1.364-2.459,1.364c-1.111,0-1.908-0.50301-2.419-1.495
					l6.679-2.731L110.531,30.125z M103.722,31.76801c-0.057-1.903,1.496-2.87801,2.608-2.87801c0.872,0,1.611,0.431,1.858,1.048
					L103.722,31.76801z M98.2943,36.556h2.1957V22.052h-2.1957V36.556z M94.6991,28.08501H94.6257
					c-0.493-0.57701-1.4336-1.09901-2.6252-1.09901c-2.5005,0-4.78671,2.17001-4.78671,4.952c0,2.765,2.2862,4.918,4.78671,4.918
					c1.1916,0,2.13219-0.52701,2.6252-1.121h0.07339v0.707c0,1.88699-1.0199,2.901-2.66479,2.901
					c-1.3413,0-2.1733-0.957-2.5167-1.76201L87.6085,38.369c0.5503,1.308,2.0074,2.918,4.4258,2.918
					c2.5738,0,4.7456-1.49701,4.7456-5.13901v-8.862h-2.0808V28.08501z M92.1883,34.912c-1.5129,0-2.7793-1.25101-2.7793-2.974
					c0-1.739,1.2664-3.00801,2.7793-3.00801c1.491,0,2.6664,1.26901,2.6664,3.00801C94.8547,33.661,93.6793,34.912,92.1883,34.912z
					 M120.809,22.052h-5.25v14.504h2.189V31.06h3.061c2.432,0,4.816-1.739,4.816-4.505
					C125.625,23.791,123.235,22.052,120.809,22.052z M120.866,29.043h-3.118v-4.974h3.118c1.635,0,2.568,1.342,2.568,2.486
					C123.434,27.67799,122.501,29.043,120.866,29.043z M134.39999,26.959c-1.58099,0-3.226,0.69-3.903,2.22l1.94301,0.80499
					c0.418-0.80499,1.187-1.06599,2-1.06599c1.136,0,2.28799,0.674,2.30499,1.86501V30.935c-0.396-0.226-1.24399-0.561-2.287-0.561
					c-2.09299,0-4.22499,1.13901-4.22499,3.263c0,1.944,1.714,3.196,3.64099,3.196c1.47301,0,2.28601-0.657,2.79701-1.422h0.07399
					v1.121H138.86v-5.563C138.86,28.397,136.91701,26.959,134.39999,26.959z M134.136,34.90601
					c-0.716,0-1.714-0.35001-1.714-1.22801c0-1.123,1.24501-1.55299,2.32201-1.55299c0.96399,0,1.416,0.21001,2.00099,0.487
					C136.57401,33.955,135.40401,34.90601,134.136,34.90601z M146.564,27.276l-2.517,6.287h-0.07399l-2.60201-6.287h-2.36101
					l3.90901,8.786l-2.231,4.89h2.28799L149,27.276H146.564z M126.829,36.556h2.195V22.052h-2.195V36.556z"/>
			</mask>
			<path class="st4" d="M81.2809,26.986c-2.7573,0-5.0098,2.074-5.0098,4.936c0,2.838,2.25249,4.93401,5.0098,4.93401
				c2.7632,0,5.0157-2.09601,5.0157-4.93401C86.2966,29.06,84.0441,26.986,81.2809,26.986z M81.2809,34.912
				c-1.5129,0-2.8145-1.23401-2.8145-2.99001c0-1.78,1.3016-2.992,2.8145-2.992c1.513,0,2.8204,1.21201,2.8204,2.992
				C84.1013,33.67799,82.7939,34.912,81.2809,34.912z M70.35,26.986c-2.7631,0-5.0098,2.074-5.0098,4.936
				c0,2.838,2.2467,4.93401,5.0098,4.93401c2.7617,0,5.0098-2.09601,5.0098-4.93401C75.3598,29.06,73.1117,26.986,70.35,26.986z
				 M70.35,34.912c-1.5144,0-2.8204-1.23401-2.8204-2.99001c0-1.78,1.306-2.992,2.8204-2.992c1.513,0,2.8146,1.21201,2.8146,2.992
				C73.1646,33.67799,71.863,34.912,70.35,34.912z M57.3427,28.49899v2.097h5.0671c-0.1482,1.17201-0.5444,2.033-1.152,2.634
				c-0.7395,0.72501-1.8915,1.53-3.9151,1.53c-3.1183,0-5.5601-2.487-5.5601-5.569c0-3.08199,2.4418-5.56999,5.5601-5.56999
				c1.6861,0,2.9129,0.651,3.8183,1.49599l1.4953-1.478c-1.2664-1.195-2.951-2.114-5.3136-2.114
				c-4.2761,0-7.8698,3.439-7.8698,7.66599c0,4.22601,3.5937,7.66501,7.8698,7.66501c2.3112,0,4.0472-0.74901,5.4119-2.153
				c1.3985-1.382,1.8343-3.325,1.8343-4.895c0-0.487-0.0411-0.935-0.11449-1.30901H57.3427z M110.531,30.125
				c-0.41199-1.104-1.684-3.139-4.276-3.139c-2.568,0-4.70599,1.99999-4.70599,4.936c0,2.76401,2.116,4.93401,4.953,4.93401
				c2.293,0,3.617-1.382,4.161-2.187l-1.702-1.121c-0.568,0.81999-1.341,1.364-2.459,1.364c-1.111,0-1.908-0.50301-2.419-1.495
				l6.679-2.731L110.531,30.125z M103.722,31.76801c-0.057-1.903,1.496-2.87801,2.608-2.87801c0.872,0,1.611,0.431,1.858,1.048
				L103.722,31.76801z M98.2943,36.556h2.1957V22.052h-2.1957V36.556z M94.6991,28.08501H94.6257
				c-0.493-0.57701-1.4336-1.09901-2.6252-1.09901c-2.5005,0-4.78671,2.17001-4.78671,4.952c0,2.765,2.2862,4.918,4.78671,4.918
				c1.1916,0,2.13219-0.52701,2.6252-1.121h0.07339v0.707c0,1.88699-1.0199,2.901-2.66479,2.901
				c-1.3413,0-2.1733-0.957-2.5167-1.76201L87.6085,38.369c0.5503,1.308,2.0074,2.918,4.4258,2.918
				c2.5738,0,4.7456-1.49701,4.7456-5.13901v-8.862h-2.0808V28.08501z M92.1883,34.912c-1.5129,0-2.7793-1.25101-2.7793-2.974
				c0-1.739,1.2664-3.00801,2.7793-3.00801c1.491,0,2.6664,1.26901,2.6664,3.00801C94.8547,33.661,93.6793,34.912,92.1883,34.912z
				 M120.809,22.052h-5.25v14.504h2.189V31.06h3.061c2.432,0,4.816-1.739,4.816-4.505C125.625,23.791,123.235,22.052,120.809,22.052
				z M120.866,29.043h-3.118v-4.974h3.118c1.635,0,2.568,1.342,2.568,2.486C123.434,27.67799,122.501,29.043,120.866,29.043z
				 M134.39999,26.959c-1.58099,0-3.226,0.69-3.903,2.22l1.94301,0.80499c0.418-0.80499,1.187-1.06599,2-1.06599
				c1.136,0,2.28799,0.674,2.30499,1.86501V30.935c-0.396-0.226-1.24399-0.561-2.287-0.561
				c-2.09299,0-4.22499,1.13901-4.22499,3.263c0,1.944,1.714,3.196,3.64099,3.196c1.47301,0,2.28601-0.657,2.79701-1.422h0.07399
				v1.121H138.86v-5.563C138.86,28.397,136.91701,26.959,134.39999,26.959z M134.136,34.90601c-0.716,0-1.714-0.35001-1.714-1.22801
				c0-1.123,1.24501-1.55299,2.32201-1.55299c0.96399,0,1.416,0.21001,2.00099,0.487
				C136.57401,33.955,135.40401,34.90601,134.136,34.90601z M146.564,27.276l-2.517,6.287h-0.07399l-2.60201-6.287h-2.36101
				l3.90901,8.786l-2.231,4.89h2.28799L149,27.276H146.564z M126.829,36.556h2.195V22.052h-2.195V36.556z"/>
		</g>
		<g id="g48">
			
				<linearGradient id="path64_1_" gradientUnits="userSpaceOnUse" x1="26.81452" y1="14.55571" x2="7.34351" y2="34.2557" gradientTransform="matrix(1 0 0 -1 0 52.67924)">
				<stop  offset="0" style="stop-color:#4696D2"/>
				<stop  offset="0.0066" style="stop-color:#4598D3"/>
				<stop  offset="0.2601" style="stop-color:#3FB9EB"/>
				<stop  offset="0.5122" style="stop-color:#4AC1ED"/>
				<stop  offset="0.7604" style="stop-color:#5CC4E6"/>
				<stop  offset="1" style="stop-color:#60C4E5"/>
			</linearGradient>
			<path id="path64" class="st5" d="M13.5444,10.494C13.1996,10.851,13,11.407,13,12.126v25.66
				c0,0.71901,0.1996,1.274,0.5444,1.63101l0.0851,0.07899l14.5481-14.373v-0.34L13.6295,10.41L13.5444,10.494z"/>
		</g>
		<g id="g66">
			
				<linearGradient id="path78_1_" gradientUnits="userSpaceOnUse" x1="41.0137" y1="27.72625" x2="12.6079" y2="27.72625" gradientTransform="matrix(1 0 0 -1 0 52.67924)">
				<stop  offset="0" style="stop-color:#FFE00A"/>
				<stop  offset="0.4087" style="stop-color:#FBBC0F"/>
				<stop  offset="0.7754" style="stop-color:#F7A418"/>
				<stop  offset="1" style="stop-color:#F59A1B"/>
			</linearGradient>
			<path id="path78" class="st6" d="M33.0214,29.916l-4.844-4.793v-0.34l4.8498-4.793l0.1086,0.062l5.7435,3.23
				c1.6392,0.917,1.6392,2.425,0,3.348L33.1358,29.854L33.0214,29.916z"/>
		</g>
		<g id="g80">
			
				<linearGradient id="path88_1_" gradientUnits="userSpaceOnUse" x1="20.67557" y1="20.73972" x2="-5.72872" y2="47.45512" gradientTransform="matrix(1 0 0 -1 0 52.67924)">
				<stop  offset="0" style="stop-color:#E8404A"/>
				<stop  offset="1" style="stop-color:#C31262"/>
			</linearGradient>
			<path id="path88" class="st7" d="M33.1361,29.854l-4.9584-4.901l-14.6333,14.464c0.5445,0.56599,1.4322,0.63399,2.4418,0.06898
				L33.1361,29.854z"/>
		</g>
		<g id="g90">
			
				<linearGradient id="path104_1_" gradientUnits="userSpaceOnUse" x1="0.33973" y1="14.13612" x2="12.13048" y2="26.06512" gradientTransform="matrix(1 0 0 -1 0 52.67924)">
				<stop  offset="0" style="stop-color:#32A071"/>
				<stop  offset="0.0685" style="stop-color:#2DA771"/>
				<stop  offset="0.4762" style="stop-color:#4FB26F"/>
				<stop  offset="0.8009" style="stop-color:#61B668"/>
				<stop  offset="1" style="stop-color:#64B664"/>
			</linearGradient>
			<path id="path104" class="st8" d="M33.1361,20.052L15.9862,10.42c-1.0096-0.56-1.8973-0.491-2.4418,0.07401l14.6333,14.459
				L33.1361,20.052z"/>
		</g>
	</g>
	<g id="Group_2_x5F_5">
		<path id="GET_IT_ON_x5F_3" class="st1" d="M50.9687,13.58v-0.864c0-0.931,0.2491-1.665,0.7471-2.202
			c0.5013-0.541,1.1833-0.811,2.0459-0.811c0.4037,0,0.7682,0.062,1.0938,0.186c0.3287,0.123,0.5973,0.291,0.8056,0.503
			c0.2084,0.208,0.3695,0.444,0.4834,0.708c0.1172,0.263,0.1823,0.543,0.1953,0.839h-1.1523
			c-0.0488-0.39301-0.2051-0.69601-0.4688-0.908c-0.2636-0.215-0.5875-0.322-0.9716-0.322c-0.4753,0-0.8594,0.168-1.1524,0.503
			c-0.2929,0.335-0.4394,0.83801-0.4394,1.509v0.859c0,0.638,0.1318,1.139,0.3955,1.504c0.2669,0.361,0.6657,0.542,1.1963,0.542
			c0.4394,0,0.7959-0.12,1.0693-0.361c0.2734-0.244,0.4102-0.55,0.4102-0.918v-0.484H53.752v-0.918h2.6025v1.343
			c0,0.208-0.0277,0.417-0.083,0.625c-0.0554,0.208-0.1481,0.418-0.2783,0.63c-0.1302,0.208-0.293,0.392-0.4883,0.552
			c-0.1953,0.159-0.446,0.289-0.752,0.39c-0.3027,0.098-0.6412,0.147-1.0156,0.147c-0.9147,0-1.6048-0.275-2.0703-0.825
			C51.2015,15.257,50.9687,14.514,50.9687,13.58z M58.3605,16.5V9.835h4.209v0.986h-3.0322v1.831h2.8516v0.933h-2.8516v1.929h3.0322
			V16.5H58.3605z M63.9701,10.836V9.835h5.044v1.001h-1.9385V16.5h-1.1719v-5.664H63.9701z M73.4168,16.5V9.835h1.18159V16.5
			H73.4168z M76.2236,10.836V9.835h5.044v1.001h-1.9385V16.5h-1.1719v-5.664H76.2236z M85.4066,13.639V12.75
			c0-0.944,0.2507-1.688,0.752-2.231C86.6599,9.975,87.3435,9.703,88.2094,9.703c0.86591,0,1.54781,0.272,2.04591,0.81599
			c0.498,0.543,0.74699,1.287,0.74699,2.231v0.889c0,0.937-0.2506,1.671-0.7519,2.202c-0.4981,0.52699-1.1833,0.791-2.05569,0.791
			c-0.8691,0-1.5511-0.26401-2.0459-0.791C85.654,15.313,85.4066,14.579,85.4066,13.639z M86.598,13.644
			c0,0.651,0.1465,1.145,0.4395,1.484c0.293,0.335,0.682,0.503,1.167,0.503c0.4818,0,0.8691-0.168,1.1621-0.503
			c0.293-0.339,0.4395-0.833,0.4395-1.484V12.74c0-0.654-0.1482-1.157-0.4444-1.509c-0.293-0.35101-0.6787-0.527-1.1572-0.527
			c-0.4818,0-0.8708,0.17599-1.167,0.527c-0.293,0.352-0.4395,0.855-0.4395,1.509V13.644z M93.0035,16.5V9.835h1.0205l3.0615,4.663
			h0.0391V9.835h1.1231V16.5h-1.0108l-3.0713-4.678h-0.0342V16.5H93.0035z"/>
	</g>
</g>
</svg>
