<?xml version="1.0" encoding="utf-8"?>
<!-- Generator: Adobe Illustrator 25.1.0, SVG Export Plug-In . SVG Version: 6.00 Build 0)  -->
<svg version="1.1" id="Camada_1" xmlns="http://www.w3.org/2000/svg" xmlns:xlink="http://www.w3.org/1999/xlink" x="0px" y="0px"
	 viewBox="0 0 160 50" style="enable-background:new 0 0 160 50;" xml:space="preserve">
<style type="text/css">
	.st0{fill:#FFFFFF;}
	.st1{fill-rule:evenodd;clip-rule:evenodd;fill:#010202;}
	.st2{fill:#010202;}
</style>
<g id="download_apple">
	<path id="Rectangle_2" class="st0" d="M5,0h150c2.76143,0,5,2.23857,5,5v40c0,2.76142-2.23857,5-5,5H5c-2.76142,0-5-2.23858-5-5V5
		C0,2.23857,2.23858,0,5,0z"/>
	<path id="Shape" class="st1" d="M31.4359,8.5c0.2683,1.8222-0.4734,3.6073-1.4518,4.8703
		c-1.0467,1.3547-2.851,2.4025-4.5991,2.3478c-0.3192-1.7445,0.4979-3.542,1.4921-4.7503C27.9677,9.6342,29.8368,8.6111,31.4359,8.5
		z M36.6874,34.1481c0.9012-1.3812,1.2379-2.0779,1.9375-3.6373c-5.0884-1.93501-5.9037-9.16901-0.8679-11.9455
		c-1.536-1.9263-3.6945-3.0428-5.7319-3.0428c-1.4681,0-2.4739,0.3831-3.3884,0.7314c-0.762,0.2902-1.4605,0.5563-2.3102,0.5563
		c-0.9181,0-1.7311-0.2916-2.5824-0.5968c-0.9355-0.3354-1.9172-0.6874-3.1354-0.6874c-2.2864,0-4.7201,1.397-6.2631,3.7854
		c-2.169,3.3639-1.799,9.6877,1.7183,15.0748c1.2572,1.928,2.9369,4.0942,5.134,4.1136c0.9116,0.009,1.5182-0.263,2.1747-0.5575
		c0.7513-0.337,1.568-0.7033,2.982-0.7108c1.4223-0.0085,2.2261,0.3622,2.9675,0.7042c0.6396,0.295,1.2328,0.5686,2.1366,0.5588
		C33.6575,38.4769,35.4302,36.0761,36.6874,34.1481z"/>
	<g id="Group_2_x5F_2">
		<path id="DOWNLOAD_ON_THE" class="st2" d="M51.1592,10.5015V16.5h2.1137c1.9512,0,2.6675-1.27,2.6675-3.0103
			c0-1.7578-0.7339-2.9882-2.6675-2.9882H51.1592z M52.2227,11.3892h0.9228c1.2788,0,1.7007,0.8701,1.7007,2.1181
			c0,1.481-0.5845,2.105-1.7007,2.105h-0.9228V11.3892z M58.5105,13.1162c0-1.2129,0.6153-1.8325,1.4458-1.8325
			c0.835,0,1.4414,0.6196,1.4414,1.8325v0.813c0,1.2129-0.6064,1.7886-1.4414,1.7886c-0.8305,0-1.4458-0.5757-1.4458-1.7886V13.1162
			z M57.4339,13.9248c0,1.6963,0.958,2.6939,2.518,2.6939c1.5601,0,2.5269-0.9976,2.5269-2.6939V13.125
			c0-1.7007-0.9536-2.7422-2.5181-2.7422c-1.5556,0-2.5268,1.0371-2.5268,2.7422V13.9248z M66.2354,16.5l1.1558-4.3198h0.03951
			L68.5865,16.5h0.9712l1.604-5.9985h-1.1382l-0.9932,4.4033h-0.0439l-1.0943-4.4033h-0.958l-1.09859,4.4033H65.796l-0.9976-4.4033
			h-1.1382L65.2598,16.5H66.2354z M73.5824,16.5v-4.21h0.0307l2.7818,4.21h0.9096v-5.9985h-0.9931v4.1967h-0.0352l-2.7729-4.1967
			h-0.9185V16.5H73.5824z M83.0255,15.5859h-2.6103v-5.0844h-1.0635V16.5h3.6738V15.5859z M85.2704,13.1162
			c0-1.2129,0.6152-1.8325,1.4458-1.8325c0.835,0,1.4414,0.6196,1.4414,1.8325v0.813c0,1.2129-0.6064,1.7886-1.4414,1.7886
			c-0.8306,0-1.4458-0.5757-1.4458-1.7886V13.1162z M84.1937,13.9248c0,1.6963,0.9581,2.6939,2.5181,2.6939
			c1.5601,0,2.5269-0.9976,2.5269-2.6939V13.125c0-1.7007-0.9536-2.7422-2.5181-2.7422c-1.55569,0-2.52689,1.0371-2.52689,2.7422
			V13.9248z M91.4264,16.5l0.5098-1.6172H94.006L94.5158,16.5h1.1382l-2.0435-5.9985H92.402L90.3542,16.5H91.4264z M92.9953,11.5781
			l0.7822,2.49611h-1.6084l0.78661-2.49611H92.9953z M97.1123,10.5015V16.5h2.1137c1.951,0,2.668-1.27,2.668-3.0103
			c0-1.7578-0.73399-2.9882-2.668-2.9882H97.1123z M98.1757,11.3892h0.9229c1.2784,0,1.7004,0.8701,1.7004,2.1181
			c0,1.481-0.58401,2.105-1.7004,2.105h-0.9229V11.3892z M106.968,13.1162c0-1.2129,0.615-1.8325,1.446-1.8325
			c0.835,0,1.441,0.6196,1.441,1.8325v0.813c0,1.2129-0.606,1.7886-1.441,1.7886c-0.831,0-1.446-0.5757-1.446-1.7886V13.1162z
			 M105.891,13.9248c0,1.6963,0.958,2.6939,2.518,2.6939c1.56001,0,2.527-0.9976,2.527-2.6939V13.125
			c0-1.7007-0.95399-2.7422-2.518-2.7422c-1.556,0-2.527,1.0371-2.527,2.7422V13.9248z M113.735,16.5v-4.21h0.03l2.782,4.21h0.91
			v-5.9985h-0.993v4.1967h-0.035l-2.773-4.1967h-0.919V16.5H113.735z M124.219,16.5v-5.0977h1.744v-0.9008H121.424v0.9008h1.74V16.5
			H124.219z M132.22,16.5v-5.9985h-1.063v2.4741h-2.672v-2.4741h-1.063V16.5h1.063v-2.6279h2.672V16.5H132.22z M138.047,15.6123
			h-2.729V13.8765h2.56601v-0.8394h-2.56601v-1.6479h2.729v-0.8877H134.259V16.5h3.78799V15.6123z"/>
		<path id="App_Store" class="st2" d="M49.1909,38.5l5.2334-15.3296h3.0884L62.7349,38.5h-2.9087l-1.3028-4.1328h-5.2895
			L51.9312,38.5H49.1909z M53.8291,32.3008h4.1104l-1.9991-6.3789h-0.101L53.8291,32.3008z M64.4028,42.5093V26.6069h2.5943v1.7183
			h0.101c0.2471-0.569,0.6739-1.022,1.2803-1.3589c0.6064-0.3444,1.35509-0.5166,2.24609-0.5166
			c1.3551,0,2.437,0.4754,3.24561,1.4263c0.8161,0.9508,1.2241,2.276,1.2241,3.9756v1.4262c0,1.6996-0.408,3.021-1.2241,3.9644
			c-0.8086,0.9433-1.9054,1.415-3.2905,1.415c-0.8685,0-1.5873-0.1684-2.1563-0.5053c-0.569-0.337-0.9883-0.7787-1.2578-1.3252
			h-0.1123v5.6826H64.4028z M67.0532,33.1318c0,0.9808,0.2433,1.78941,0.73,2.4258c0.49409,0.6289,1.1567,0.9434,1.9878,0.9434
			c0.79359,0,1.42619-0.292,1.8979-0.876c0.4792-0.5915,0.7188-1.4487,0.7188-2.5718v-0.9995c0-1.1081-0.2359-1.9578-0.7075-2.5493
			c-0.47169-0.599-1.1231-0.8984-1.9541-0.8984c-0.8236,0-1.475,0.3032-1.95409,0.9096c-0.4792,0.599-0.7188,1.4001-0.7188,2.4033
			V33.1318z M77.4248,42.5093V26.6069h2.5942v1.7183h0.1011c0.247-0.569,0.6738-1.022,1.2803-1.3589
			c0.6064-0.3444,1.3551-0.5166,2.246-0.5166c1.3552,0,2.4371,0.4754,3.2457,1.4263c0.816,0.9508,1.22411,2.276,1.22411,3.9756
			v1.4262c0,1.6996-0.4081,3.021-1.22411,3.9644c-0.80859,0.9433-1.90549,1.415-3.2906,1.415c-0.8685,0-1.5872-0.1684-2.1562-0.5053
			c-0.569-0.337-0.9883-0.7787-1.2578-1.3252h-0.1123v5.6826H77.4248z M80.0752,33.1318c0,0.9808,0.24329,1.78941,0.7299,2.4258
			c0.4942,0.6289,1.1568,0.9434,1.9878,0.9434c0.7937,0,1.4263-0.292,1.898-0.876c0.4791-0.5915,0.7187-1.4487,0.7187-2.5718
			v-0.9995c0-1.1081-0.2358-1.9578-0.7075-2.5493c-0.4717-0.599-1.123-0.8984-1.9541-0.8984c-0.8236,0-1.4749,0.3032-1.9541,0.9096
			c-0.4792,0.599-0.7187,1.4001-0.7187,2.4033V33.1318z M93.9003,34.21h2.6392c0.05991,0.6813,0.38181,1.2503,0.96581,1.707
			c0.584,0.4492,1.38129,0.6738,2.3921,0.6738c0.9586,0,1.7066-0.20589,2.2456-0.6177c0.547-0.4117,0.82-0.9695,0.82-1.6733
			c0-0.554-0.194-0.9958-0.584-1.3252c-0.382-0.3294-0.988-0.5952-1.819-0.7974l-2.4595-0.5952
			c-0.5316-0.1198-1.0182-0.2845-1.46-0.4941c-0.4342-0.2171-0.8347-0.4867-1.2016-0.8086
			c-0.35941-0.3294-0.64011-0.7375-0.8423-1.2241c-0.2021-0.4867-0.3032-1.0332-0.3032-1.6397
			c0-0.9508,0.25829-1.7781,0.77489-2.4819c0.5166-0.7113,1.1942-1.2391,2.0327-1.5835c0.8385-0.3444,1.7707-0.51659,2.7964-0.51659
			c1.0336,0,1.9656,0.1759,2.7966,0.52779c0.838,0.35191,1.505,0.876,1.999,1.5723c0.501,0.6888,0.76,1.4899,0.775,2.4033h-2.583
			c-0.053-0.6663-0.33701-1.2166-0.854-1.6509c-0.516-0.4342-1.235-0.6513-2.1561-0.6513c-0.861,0-1.5535,0.1946-2.0776,0.584
			c-0.5166,0.38181-0.7749,0.9096-0.7749,1.5834c0,0.9958,0.7038,1.65839,2.1113,1.9878l2.4703,0.5953
			c0.61401,0.1422,1.15301,0.3182,1.618,0.5278c0.464,0.20959,0.887,0.47919,1.269,0.80859
			c0.389,0.3294,0.68501,0.7412,0.887,1.23531c0.202,0.49419,0.303,1.06319,0.303,1.7071c0,1.4824-0.546,2.6429-1.64,3.4814
			c-1.085,0.8386-2.53,1.2578-4.3345,1.2578c-0.8311,0-1.5835-0.0936-2.2574-0.2807c-0.6663-0.1872-1.2166-0.4305-1.65079-0.73
			c-0.4268-0.29951-0.7862-0.65141-1.0782-1.0557c-0.292-0.4118-0.5016-0.8236-0.6289-1.2353
			C93.9714,35.0822,93.9078,34.6517,93.9003,34.21z M107.136,28.7856V26.708h1.707v-2.9648h2.583v2.9648h2.313v2.0776h-2.313v6.0982
			c0,0.62141,0.131,1.0482,0.393,1.2803c0.269,0.2246,0.737,0.3369,1.404,0.3369c0.292,0,0.486-0.0075,0.584-0.0225v2.0103
			c-0.382,0.0599-0.794,0.0898-1.236,0.0898c-0.966,0-1.726-0.1235-2.28-0.3706s-0.943-0.6102-1.168-1.0893
			c-0.217-0.48669-0.325-1.1418-0.325-1.9654v-6.3677H107.136z M115.272,32.9634v-0.8423c0-1.1081,0.19099-2.0851,0.573-2.9312
			c0.389-0.846,0.992-1.51981,1.808-2.0214c0.816-0.5017,1.805-0.7525,2.965-0.7525c1.73701,0,3.05801,0.5166,3.964,1.5498
			c0.914,1.0257,1.371,2.4071,1.371,4.1441v0.8535c0,1.7819-0.453,3.1857-1.359,4.2114c-0.906,1.0182-2.231,1.52731-3.97601,1.52731
			c-1.744,0-3.073-0.5091-3.987-1.52731C115.725,36.1566,115.272,34.7528,115.272,32.9634z M117.934,32.896
			c0,0.50909,0.045,0.9733,0.135,1.39259c0.09,0.4192,0.232,0.8086,0.426,1.1679c0.195,0.35191,0.472,0.62891,0.832,0.8311
			c0.35899,0.2021,0.78899,0.3032,1.29099,0.3032c0.494,0,0.92101-0.0973,1.28001-0.292c0.36-0.2021,0.633-0.48289,0.82-0.8423
			c0.195-0.3593,0.333-0.7487,0.416-1.1679c0.09-0.4193,0.134-0.8835,0.134-1.39259v-0.6851c0-0.5166-0.044-0.9845-0.134-1.4038
			c-0.083-0.4192-0.221-0.8086-0.416-1.1679c-0.195-0.3594-0.472-0.6364-0.831-0.8311c-0.352-0.2021-0.775-0.3032-1.269-0.3032
			c-0.494,0-0.925,0.1011-1.29099,0.3032c-0.36,0.2022-0.637,0.4829-0.832,0.8423c-0.194,0.3519-0.33601,0.7412-0.426,1.168
			c-0.09,0.4192-0.135,0.8834-0.135,1.3925V32.896z M128.384,38.5V26.6182h2.651v1.5385h0.101
			c0.44901-1.1455,1.388-1.7182,2.81799-1.7182c0.30701,0,0.599,0.0262,0.87601,0.0786v2.3247
			c-0.187-0.0599-0.554-0.0898-1.10001-0.0898c-1.767,0-2.651,0.9209-2.651,2.7626V38.5H128.384z M135.791,33.0869v-0.9995
			c0-1.737,0.457-3.1146,1.37-4.1328c0.91301-1.0257,2.175-1.5386,3.785-1.5386c1.63901,0,2.905,0.5129,3.79601,1.5386
			c0.89799,1.0257,1.347,2.3996,1.347,4.1216v1.06689h-7.681v0.37061c0,0.8759,0.23199,1.6097,0.696,2.2011
			c0.46399,0.5915,1.127,0.8873,1.98799,0.8873c0.681,0,1.213-0.1498,1.59401-0.4493c0.39-0.2994,0.629-0.6775,0.71899-1.1342h2.561
			c-0.03801,0.3369-0.12401,0.67-0.259,0.9995c-0.127,0.32941-0.31799,0.65881-0.57201,0.9882
			c-0.25499,0.3295-0.562,0.6177-0.92099,0.8648c-0.35201,0.2471-0.798,0.4492-1.33701,0.6064
			c-0.539,0.1498-1.13,0.2246-1.774,0.2246c-1.692,0-3.002-0.4978-3.931-1.4936C136.25101,36.2052,135.791,34.8314,135.791,33.0869z
			 M138.408,31.3574h5.09799V31.335c0-0.8536-0.228-1.5461-0.685-2.0777s-1.07401-0.7973-1.853-0.7973
			c-0.786,0-1.411,0.2695-1.875,0.8086c-0.457,0.5315-0.685,1.2203-0.685,2.0664V31.3574z"/>
	</g>
</g>
</svg>
