<?xml version="1.0" encoding="utf-8"?>
<!-- Generator: Adobe Illustrator 25.2.0, SVG Export Plug-In . SVG Version: 6.00 Build 0)  -->
<svg version="1.1"
	 id="Camada_1" image-rendering="optimizeQuality" shape-rendering="geometricPrecision" text-rendering="geometricPrecision"
	 xmlns="http://www.w3.org/2000/svg" xmlns:xlink="http://www.w3.org/1999/xlink" x="0px" y="0px" viewBox="0 0 2276.056 285.126"
	 style="enable-background:new 0 0 2276.056 285.126;" xml:space="preserve">
<style type="text/css">
	.st0{fill-rule:evenodd;clip-rule:evenodd;fill:#953FD5;}
	.st1{fill:#953FD5;}
</style>
<g>
	<path class="st0" d="M163.826,10.617l24.494,75.884c2.098,6.494,7.903,10.71,14.727,10.695l79.736-0.153
		c14.96-0.031,21.205,19.176,9.079,27.948l-64.596,46.745c-5.533,4.001-7.746,10.821-5.625,17.307l24.786,75.789
		c4.645,14.202-11.705,26.08-23.775,17.273l-64.42-46.994c-5.51-4.02-12.686-4.02-18.196,0l-64.42,46.994
		c-12.073,8.807-28.419-3.071-23.775-17.273l24.786-75.789c2.121-6.486-0.096-13.306-5.625-17.307L6.405,124.991
		c-12.127-8.772-5.881-27.979,9.079-27.948l79.736,0.153c6.823,0.015,12.628-4.2,14.727-10.695l24.494-75.884
		C139.01-3.539,159.258-3.539,163.826,10.617z"/>
</g>
<g>
	<path class="st0" d="M658.273,10.617l24.494,75.884c2.098,6.494,7.903,10.71,14.727,10.695l79.736-0.153
		c14.96-0.031,21.205,19.176,9.079,27.948l-64.596,46.745c-5.533,4.001-7.746,10.821-5.625,17.307l24.786,75.789
		c4.645,14.202-11.705,26.08-23.775,17.273l-64.42-46.994c-5.51-4.02-12.686-4.02-18.196,0l-64.42,46.994
		c-12.073,8.807-28.419-3.071-23.775-17.273l24.786-75.789c2.121-6.486-0.096-13.306-5.625-17.307l-64.596-46.745
		c-12.127-8.772-5.881-27.979,9.079-27.948l79.736,0.153c6.823,0.015,12.628-4.2,14.727-10.695l24.494-75.884
		C633.457-3.539,653.705-3.539,658.273,10.617z"/>
</g>
<g>
	<path class="st0" d="M1152.72,10.617l24.495,75.884c2.098,6.494,7.903,10.71,14.727,10.695l79.736-0.153
		c14.96-0.031,21.205,19.176,9.079,27.948l-64.596,46.745c-5.533,4.001-7.746,10.821-5.625,17.307l24.786,75.789
		c4.645,14.202-11.705,26.08-23.775,17.273l-64.42-46.994c-5.51-4.02-12.686-4.02-18.196,0l-64.42,46.994
		c-12.073,8.807-28.419-3.071-23.775-17.273l24.786-75.789c2.121-6.486-0.096-13.306-5.625-17.307l-64.596-46.745
		c-12.127-8.772-5.881-27.979,9.079-27.948l79.736,0.153c6.823,0.015,12.628-4.2,14.727-10.695l24.495-75.884
		C1127.904-3.539,1148.152-3.539,1152.72,10.617z"/>
</g>
<g>
	<path class="st0" d="M1647.167,10.617l24.494,75.884c2.098,6.494,7.903,10.71,14.727,10.695l79.736-0.153
		c14.96-0.031,21.205,19.176,9.079,27.948l-64.596,46.745c-5.533,4.001-7.746,10.821-5.625,17.307l24.786,75.789
		c4.645,14.202-11.705,26.08-23.775,17.273l-64.42-46.994c-5.51-4.02-12.686-4.02-18.196,0l-64.42,46.994
		c-12.073,8.807-28.419-3.071-23.775-17.273l24.786-75.789c2.121-6.486-0.096-13.306-5.625-17.307l-64.596-46.745
		c-12.127-8.772-5.881-27.979,9.079-27.948l79.736,0.153c6.823,0.015,12.628-4.2,14.727-10.695l24.494-75.884
		C1622.351-3.539,1642.599-3.539,1647.167,10.617z"/>
</g>
<g>
	<path class="st1" d="M2126.922,14c1.073,0,1.237,0.508,1.369,0.917l24.496,75.889c3.941,12.196,15.198,20.39,28.012,20.39h0.05
		h0.013l79.746-0.153c0.456,0,1.023,0,1.347,1.002c0.324,1-0.139,1.334-0.512,1.604l-64.593,46.743
		c-10.41,7.529-14.721,20.792-10.727,33.003l24.786,75.789c0.213,0.652,0.102,0.876-0.092,1.143c-0.363,0.5-0.982,0.799-1.371,0.799
		c-0.074,0-0.301,0-0.754-0.332l-64.419-46.993c-5.116-3.733-11.115-5.706-17.35-5.706s-12.234,1.973-17.349,5.705l-64.42,46.994
		c-0.454,0.332-0.681,0.332-0.756,0.332c-0.389,0-1.008-0.299-1.37-0.798c-0.194-0.267-0.305-0.491-0.091-1.145l24.785-75.788
		c3.992-12.208-0.317-25.47-10.724-33.001l-64.598-46.747c-0.371-0.268-0.833-0.603-0.509-1.603
		c0.322-0.994,0.882-1.002,1.344-1.002c0.004,0,0.008,0,0.012,0l79.741,0.153h0.039h0.02c12.814,0,24.071-8.194,28.013-20.394
		l24.495-75.886C2125.685,14.508,2125.849,14,2126.922,14 M2126.922,0c-6.204,0-12.408,3.539-14.692,10.617l-24.495,75.884
		c-2.095,6.482-7.882,10.695-14.69,10.695c-0.012,0-0.025,0-0.037,0l-79.736-0.153c-0.013,0-0.023,0-0.036,0
		c-14.932,0-21.159,19.183-9.043,27.948l64.596,46.745c5.529,4.001,7.746,10.821,5.625,17.308l-24.785,75.789
		c-3.539,10.822,5.108,20.294,14.768,20.294c3.017,0,6.134-0.925,9.007-3.021l64.42-46.994c2.755-2.01,5.927-3.016,9.098-3.016
		s6.343,1.005,9.098,3.016l64.42,46.994c2.873,2.096,5.988,3.021,9.005,3.021c9.658,0,18.309-9.473,14.77-20.294l-24.786-75.789
		c-2.121-6.486,0.092-13.306,5.625-17.308l64.596-46.745c12.117-8.766,5.892-27.948-9.043-27.948c-0.012,0-0.024,0-0.036,0
		l-79.737,0.153c-0.012,0-0.024,0-0.037,0c-6.807,0-12.595-4.212-14.69-10.695l-24.494-75.884C2139.33,3.539,2133.126,0,2126.922,0
		L2126.922,0z"/>
</g>
</svg>
