<?xml version="1.0" encoding="utf-8"?>
<!-- Generator: Adobe Illustrator 25.2.0, SVG Export Plug-In . SVG Version: 6.00 Build 0)  -->
<svg version="1.1"
	 id="Camada_1" image-rendering="optimizeQuality" shape-rendering="geometricPrecision" text-rendering="geometricPrecision"
	 xmlns="http://www.w3.org/2000/svg" xmlns:xlink="http://www.w3.org/1999/xlink" x="0px" y="0px" viewBox="0 0 2276.056 285.126"
	 style="enable-background:new 0 0 2276.056 285.126;" xml:space="preserve">
<style type="text/css">
	.st0{fill-rule:evenodd;clip-rule:evenodd;fill:#953FD5;}
</style>
<g>
	<path class="st0" d="M163.826,10.617l24.494,75.884c2.098,6.494,7.903,10.71,14.727,10.695l79.736-0.153
		c14.96-0.031,21.205,19.176,9.079,27.948l-64.596,46.745c-5.533,4.001-7.746,10.821-5.625,17.307l24.786,75.789
		c4.645,14.202-11.705,26.08-23.775,17.273l-64.42-46.994c-5.51-4.02-12.686-4.02-18.196,0l-64.42,46.994
		c-12.073,8.807-28.419-3.071-23.775-17.273l24.786-75.789c2.121-6.486-0.096-13.306-5.625-17.307L6.405,124.991
		c-12.127-8.772-5.881-27.979,9.079-27.948l79.736,0.153c6.823,0.015,12.628-4.2,14.727-10.695l24.494-75.884
		C139.01-3.539,159.258-3.539,163.826,10.617z"/>
</g>
<g>
	<path class="st0" d="M658.273,10.617l24.494,75.884c2.098,6.494,7.903,10.71,14.727,10.695l79.736-0.153
		c14.96-0.031,21.205,19.176,9.079,27.948l-64.596,46.745c-5.533,4.001-7.746,10.821-5.625,17.307l24.786,75.789
		c4.645,14.202-11.705,26.08-23.775,17.273l-64.42-46.994c-5.51-4.02-12.686-4.02-18.196,0l-64.42,46.994
		c-12.073,8.807-28.419-3.071-23.775-17.273l24.786-75.789c2.121-6.486-0.096-13.306-5.625-17.307l-64.596-46.745
		c-12.127-8.772-5.881-27.979,9.079-27.948l79.736,0.153c6.823,0.015,12.628-4.2,14.727-10.695l24.494-75.884
		C633.457-3.539,653.705-3.539,658.273,10.617z"/>
</g>
<g>
	<path class="st0" d="M1152.72,10.617l24.495,75.884c2.098,6.494,7.903,10.71,14.727,10.695l79.736-0.153
		c14.96-0.031,21.205,19.176,9.079,27.948l-64.596,46.745c-5.533,4.001-7.746,10.821-5.625,17.307l24.786,75.789
		c4.645,14.202-11.705,26.08-23.775,17.273l-64.42-46.994c-5.51-4.02-12.686-4.02-18.196,0l-64.42,46.994
		c-12.073,8.807-28.419-3.071-23.775-17.273l24.786-75.789c2.121-6.486-0.096-13.306-5.625-17.307l-64.596-46.745
		c-12.127-8.772-5.881-27.979,9.079-27.948l79.736,0.153c6.823,0.015,12.628-4.2,14.727-10.695l24.495-75.884
		C1127.904-3.539,1148.152-3.539,1152.72,10.617z"/>
</g>
<g>
	<path class="st0" d="M1647.167,10.617l24.494,75.884c2.098,6.494,7.903,10.71,14.727,10.695l79.736-0.153
		c14.96-0.031,21.205,19.176,9.079,27.948l-64.596,46.745c-5.533,4.001-7.746,10.821-5.625,17.307l24.786,75.789
		c4.645,14.202-11.705,26.08-23.775,17.273l-64.42-46.994c-5.51-4.02-12.686-4.02-18.196,0l-64.42,46.994
		c-12.073,8.807-28.419-3.071-23.775-17.273l24.786-75.789c2.121-6.486-0.096-13.306-5.625-17.307l-64.596-46.745
		c-12.127-8.772-5.881-27.979,9.079-27.948l79.736,0.153c6.823,0.015,12.628-4.2,14.727-10.695l24.494-75.884
		C1622.351-3.539,1642.599-3.539,1647.167,10.617z"/>
</g>
<g>
	<path class="st0" d="M2141.614,10.617l24.494,75.884c2.098,6.494,7.903,10.71,14.727,10.695l79.737-0.153
		c14.96-0.031,21.205,19.176,9.079,27.948l-64.596,46.745c-5.533,4.001-7.746,10.821-5.625,17.307l24.786,75.789
		c4.645,14.202-11.706,26.08-23.775,17.273l-64.42-46.994c-5.51-4.02-12.686-4.02-18.196,0l-64.42,46.994
		c-12.073,8.807-28.419-3.071-23.775-17.273l24.786-75.789c2.121-6.486-0.096-13.306-5.625-17.307l-64.596-46.745
		c-12.127-8.772-5.881-27.979,9.079-27.948l79.736,0.153c6.823,0.015,12.628-4.2,14.727-10.695l24.494-75.884
		C2116.798-3.539,2137.046-3.539,2141.614,10.617z"/>
</g>
</svg>
