<?xml version="1.0" encoding="utf-8"?>
<!-- Generator: Adobe Illustrator 25.2.0, SVG Export Plug-In . SVG Version: 6.00 Build 0)  -->
<svg version="1.1" id="Camada_1" xmlns="http://www.w3.org/2000/svg" xmlns:xlink="http://www.w3.org/1999/xlink" x="0px" y="0px"
	 viewBox="0 0 28 20.0003" style="enable-background:new 0 0 28 20.0003;" xml:space="preserve">
<style type="text/css">
	.st0{clip-path:url(#SVGID_2_);}
	.st1{clip-path:url(#SVGID_4_);fill:none;stroke:#F4F5F5;stroke-miterlimit:10;}
	.st2{clip-path:url(#SVGID_6_);}
	.st3{clip-path:url(#SVGID_8_);enable-background:new    ;}
	.st4{clip-path:url(#SVGID_10_);}
	.st5{clip-path:url(#SVGID_12_);fill:#FFFFFF;}
	.st6{clip-path:url(#SVGID_14_);}
	.st7{clip-path:url(#SVGID_16_);fill:none;stroke:#F4F5F5;stroke-miterlimit:10;}
	.st8{clip-path:url(#SVGID_18_);}
	.st9{clip-path:url(#SVGID_22_);}
	.st10{clip-path:url(#SVGID_26_);}
	.st11{clip-path:url(#SVGID_28_);enable-background:new    ;}
	.st12{clip-path:url(#SVGID_30_);}
	.st13{clip-path:url(#SVGID_32_);fill:#FFFFFF;}
	.st14{clip-path:url(#SVGID_34_);}
	.st15{clip-path:url(#SVGID_36_);fill:#CF2F44;}
	.st16{clip-path:url(#SVGID_38_);}
	.st17{clip-path:url(#SVGID_40_);fill:#474780;}
	.st18{clip-path:url(#SVGID_44_);fill-rule:evenodd;clip-rule:evenodd;fill:#FFFFFF;}
	.st19{clip-path:url(#SVGID_46_);}
	.st20{opacity:0;clip-path:url(#SVGID_48_);}
	.st21{opacity:0;}
	.st22{clip-path:url(#SVGID_50_);}
	.st23{clip-path:url(#SVGID_48_);}
	.st24{clip-path:url(#SVGID_54_);}
</style>
<g>
	<g>
		<g>
			<defs>
				<path id="SVGID_1_" d="M0,1.9915c0-1.0996,0.8999-1.9912,1.9912-1.9912h24.0176C27.1084,0.0003,28,0.8987,28,1.9915v16.0176
					c0,1.0996-0.8999,1.9912-1.9912,1.9912H1.9912C0.8916,20.0003,0,19.1018,0,18.0091V1.9915z"/>
			</defs>
			<clipPath id="SVGID_2_">
				<use xlink:href="#SVGID_1_"  style="overflow:visible;"/>
			</clipPath>
			<g class="st0">
				<defs>
					<rect id="SVGID_3_" x="-76" y="-651.99969" width="948" height="1228"/>
				</defs>
				<clipPath id="SVGID_4_">
					<use xlink:href="#SVGID_3_"  style="overflow:visible;"/>
				</clipPath>
				<path class="st1" d="M0,1.9915c0-1.0996,0.8999-1.9912,1.9912-1.9912h24.0176C27.1084,0.0003,28,0.8987,28,1.9915v16.0176
					c0,1.0996-0.8999,1.9912-1.9912,1.9912H1.9912C0.8916,20.0003,0,19.1018,0,18.0091V1.9915z"/>
			</g>
		</g>
		<g>
			<defs>
				<path id="SVGID_5_" d="M0,1.9915c0-1.0996,0.8999-1.9912,1.9912-1.9912h24.0176C27.1084,0.0003,28,0.8987,28,1.9915v16.0176
					c0,1.0996-0.8999,1.9912-1.9912,1.9912H1.9912C0.8916,20.0003,0,19.1018,0,18.0091V1.9915z"/>
			</defs>
			<clipPath id="SVGID_6_">
				<use xlink:href="#SVGID_5_"  style="overflow:visible;"/>
			</clipPath>
			<g class="st2">
				<defs>
					<rect id="SVGID_7_" x="-76" y="-651.99969" width="948" height="1228"/>
				</defs>
				<clipPath id="SVGID_8_">
					<use xlink:href="#SVGID_7_"  style="overflow:visible;"/>
				</clipPath>
				<g class="st3">
					<g>
						<defs>
							<rect id="SVGID_9_" y="0.0003" width="28" height="20"/>
						</defs>
						<clipPath id="SVGID_10_">
							<use xlink:href="#SVGID_9_"  style="overflow:visible;"/>
						</clipPath>
						<g class="st4">
							<defs>
								<rect id="SVGID_11_" y="0.0003" width="28" height="20"/>
							</defs>
							<clipPath id="SVGID_12_">
								<use xlink:href="#SVGID_11_"  style="overflow:visible;"/>
							</clipPath>
							<path class="st5" d="M0,1.9915c0-1.0996,0.8999-1.9912,1.9912-1.9912h24.0176C27.1084,0.0003,28,0.8987,28,1.9915v16.0176
								c0,1.0996-0.8999,1.9912-1.9912,1.9912H1.9912C0.8916,20.0003,0,19.1018,0,18.0091V1.9915z"/>
						</g>
						<g class="st4">
							<defs>
								<path id="SVGID_13_" d="M0,1.9915c0-1.0996,0.8999-1.9912,1.9912-1.9912h24.0176C27.1084,0.0003,28,0.8987,28,1.9915
									v16.0176c0,1.0996-0.8999,1.9912-1.9912,1.9912H1.9912C0.8916,20.0003,0,19.1018,0,18.0091V1.9915z"/>
							</defs>
							<clipPath id="SVGID_14_">
								<use xlink:href="#SVGID_13_"  style="overflow:visible;"/>
							</clipPath>
							<g class="st6">
								<defs>
									<rect id="SVGID_15_" y="0.0003" width="28" height="20"/>
								</defs>
								<clipPath id="SVGID_16_">
									<use xlink:href="#SVGID_15_"  style="overflow:visible;"/>
								</clipPath>
								<path class="st7" d="M0,1.9915c0-1.0996,0.8999-1.9912,1.9912-1.9912h24.0176C27.1084,0.0003,28,0.8987,28,1.9915v16.0176
									c0,1.0996-0.8999,1.9912-1.9912,1.9912H1.9912C0.8916,20.0003,0,19.1018,0,18.0091V1.9915z"/>
							</g>
						</g>
						<g class="st4">
							<defs>
								<rect id="SVGID_17_" y="0.0003" width="28" height="6.667"/>
							</defs>
							<clipPath id="SVGID_18_">
								<use xlink:href="#SVGID_17_"  style="overflow:visible;"/>
							</clipPath>
							<g class="st8">
								<defs>
									<rect id="SVGID_19_" y="0.0003" width="28" height="20"/>
								</defs>
								<clipPath id="SVGID_20_">
									<use xlink:href="#SVGID_19_"  style="overflow:visible;"/>
								</clipPath>
							</g>
						</g>
						<g class="st4">
							<defs>
								<rect id="SVGID_21_" y="13.3333" width="28" height="6.667"/>
							</defs>
							<clipPath id="SVGID_22_">
								<use xlink:href="#SVGID_21_"  style="overflow:visible;"/>
							</clipPath>
							<g class="st9">
								<defs>
									<rect id="SVGID_23_" y="0.0003" width="28" height="20"/>
								</defs>
								<clipPath id="SVGID_24_">
									<use xlink:href="#SVGID_23_"  style="overflow:visible;"/>
								</clipPath>
							</g>
						</g>
					</g>
				</g>
			</g>
		</g>
	</g>
	<g>
		<g>
			<defs>
				<path id="SVGID_25_" d="M0,1.9912C0,0.8916,0.8999,0,1.9912,0h24.0176C27.10839,0,28,0.8984,28,1.9912v16.0176
					C28,19.1084,27.1001,20,26.00879,20H1.9912C0.8916,20,0,19.1015,0,18.0088V1.9912z"/>
			</defs>
			<clipPath id="SVGID_26_">
				<use xlink:href="#SVGID_25_"  style="overflow:visible;"/>
			</clipPath>
			<g class="st10">
				<defs>
					<rect id="SVGID_27_" x="-172" y="-988" width="948" height="1228"/>
				</defs>
				<clipPath id="SVGID_28_">
					<use xlink:href="#SVGID_27_"  style="overflow:visible;"/>
				</clipPath>
				<g class="st11">
					<g>
						<defs>
							<rect id="SVGID_29_" width="28" height="20"/>
						</defs>
						<clipPath id="SVGID_30_">
							<use xlink:href="#SVGID_29_"  style="overflow:visible;"/>
						</clipPath>
						<g class="st12">
							<defs>
								<rect id="SVGID_31_" width="28" height="20"/>
							</defs>
							<clipPath id="SVGID_32_">
								<use xlink:href="#SVGID_31_"  style="overflow:visible;"/>
							</clipPath>
							<rect x="-5" y="-5" class="st13" width="38" height="30"/>
						</g>
						<g class="st12">
							<defs>
								<path id="SVGID_33_" d="M0,18.667h28V20H0V18.667z M0,16h28v1.333H0V16z M0,13.333h28v1.334H0V13.333z M0,10.667h28V12H0
									V10.667z M0,8h28v1.333H0V8z M0,5.333h28v1.334H0V5.333z M0,2.667h28V4H0V2.667z M0,0h28v1.333H0V0z"/>
							</defs>
							<clipPath id="SVGID_34_">
								<use xlink:href="#SVGID_33_"  style="overflow:visible;"/>
							</clipPath>
							<g class="st14">
								<defs>
									<rect id="SVGID_35_" width="28" height="20"/>
								</defs>
								<clipPath id="SVGID_36_">
									<use xlink:href="#SVGID_35_"  style="overflow:visible;"/>
								</clipPath>
								<rect x="-5" y="-5" class="st15" width="38" height="30"/>
							</g>
						</g>
						<g class="st12">
							<defs>
								<rect id="SVGID_37_" width="12" height="9.333"/>
							</defs>
							<clipPath id="SVGID_38_">
								<use xlink:href="#SVGID_37_"  style="overflow:visible;"/>
							</clipPath>
							<g class="st16">
								<defs>
									<rect id="SVGID_39_" width="28" height="20"/>
								</defs>
								<clipPath id="SVGID_40_">
									<use xlink:href="#SVGID_39_"  style="overflow:visible;"/>
								</clipPath>
								<rect x="-5" y="-5" class="st17" width="22" height="19.333"/>
							</g>
						</g>
						<g class="st12">
							<defs>
								<rect id="SVGID_41_" x="1" y="2" width="10" height="7"/>
							</defs>
							<clipPath id="SVGID_42_">
								<use xlink:href="#SVGID_41_"  style="overflow:visible;"/>
							</clipPath>
							<g style="clip-path:url(#SVGID_42_);">
								
									<image style="overflow:visible;" width="10" height="7" xlink:href="8A81DCB52E264EDC.png"  transform="matrix(1 0 0 1 1 2)">
								</image>
							</g>
						</g>
						<g class="st12">
							<defs>
								<rect id="SVGID_43_" width="17.3335" height="15.333"/>
							</defs>
							<clipPath id="SVGID_44_">
								<use xlink:href="#SVGID_43_"  style="overflow:visible;"/>
							</clipPath>
							<path class="st18" d="M-42,8c0.3682,0,0.6665-0.2989,0.6665-0.667c0-0.3682-0.2983-0.666-0.6665-0.666
								c-0.3682,0-0.6665,0.2978-0.6665,0.666C-42.6665,7.7011-42.3682,8-42,8z M-39.3335,8c0.3682,0,0.667-0.2989,0.667-0.667
								c0-0.3682-0.2988-0.666-0.667-0.666C-39.7017,6.667-40,6.9648-40,7.333C-40,7.7011-39.7017,8-39.3335,8z M-36.6665,8
								C-36.2983,8-36,7.7011-36,7.333c0-0.3682-0.2983-0.666-0.6665-0.666c-0.3682,0-0.667,0.2978-0.667,0.666
								C-37.3335,7.7011-37.0347,8-36.6665,8z M-34,8c0.36819,0,0.6665-0.2989,0.6665-0.667c0-0.3682-0.2983-0.666-0.6665-0.666
								c-0.3682,0-0.6665,0.2978-0.6665,0.666C-34.6665,7.7011-34.3682,8-34,8z M-35.3335,6.667c0.3682,0,0.667-0.2989,0.667-0.667
								c0-0.3682-0.2988-0.667-0.667-0.667S-36,5.6318-36,6C-36,6.3681-35.7017,6.667-35.3335,6.667z M-38,6.667
								c0.3682,0,0.6665-0.2989,0.6665-0.667c0-0.3682-0.2983-0.667-0.6665-0.667c-0.3682,0-0.6665,0.2988-0.6665,0.667
								C-38.6665,6.3681-38.3682,6.667-38,6.667z M-40.6665,6.667C-40.2983,6.667-40,6.3681-40,6
								c0-0.3682-0.2983-0.667-0.6665-0.667c-0.3682,0-0.667,0.2988-0.667,0.667C-41.3335,6.3681-41.0347,6.667-40.6665,6.667z
								 M-42,5.333c0.3682,0,0.6665-0.2979,0.6665-0.666C-41.3335,4.2988-41.6318,4-42,4c-0.3682,0-0.6665,0.2988-0.6665,0.667
								C-42.6665,5.0351-42.3682,5.333-42,5.333z M-39.3335,5.333c0.3682,0,0.667-0.2979,0.667-0.666
								c0-0.3682-0.2988-0.667-0.667-0.667C-39.7017,4-40,4.2988-40,4.667C-40,5.0351-39.7017,5.333-39.3335,5.333z M-36.6665,5.333
								C-36.2983,5.333-36,5.0351-36,4.667C-36,4.2988-36.2983,4-36.6665,4c-0.3682,0-0.667,0.2988-0.667,0.667
								C-37.3335,5.0351-37.0347,5.333-36.6665,5.333z M-34,5.333c0.36819,0,0.6665-0.2979,0.6665-0.666
								C-33.3335,4.2988-33.63181,4-34,4c-0.3682,0-0.6665,0.2988-0.6665,0.667C-34.6665,5.0351-34.3682,5.333-34,5.333z
								 M-35.3335,4c0.3682,0,0.667-0.2989,0.667-0.667c0-0.3682-0.2988-0.666-0.667-0.666S-36,2.9648-36,3.333
								C-36,3.7011-35.7017,4-35.3335,4z M-38,4c0.3682,0,0.6665-0.2989,0.6665-0.667c0-0.3682-0.2983-0.666-0.6665-0.666
								c-0.3682,0-0.6665,0.2978-0.6665,0.666C-38.6665,3.7011-38.3682,4-38,4z M-40.6665,4C-40.2983,4-40,3.7011-40,3.333
								c0-0.3682-0.2983-0.666-0.6665-0.666c-0.3682,0-0.667,0.2978-0.667,0.666C-41.3335,3.7011-41.0347,4-40.6665,4z M-34,2.667
								c0.36819,0,0.6665-0.2989,0.6665-0.667c0-0.3682-0.2983-0.667-0.6665-0.667c-0.3682,0-0.6665,0.2988-0.6665,0.667
								C-34.6665,2.3681-34.3682,2.667-34,2.667z M-36.6665,2.667C-36.2983,2.667-36,2.3681-36,2
								c0-0.3682-0.2983-0.667-0.6665-0.667c-0.3682,0-0.667,0.2988-0.667,0.667C-37.3335,2.3681-37.0347,2.667-36.6665,2.667z
								 M-39.3335,2.667c0.3682,0,0.667-0.2989,0.667-0.667c0-0.3682-0.2988-0.667-0.667-0.667C-39.7017,1.333-40,1.6318-40,2
								C-40,2.3681-39.7017,2.667-39.3335,2.667z M-42,2.667c0.3682,0,0.6665-0.2989,0.6665-0.667
								c0-0.3682-0.2983-0.667-0.6665-0.667c-0.3682,0-0.6665,0.2988-0.6665,0.667C-42.6665,2.3681-42.3682,2.667-42,2.667z"/>
						</g>
						<g class="st12">
							<defs>
								<path id="SVGID_45_" d="M2,8c0.3682,0,0.6665-0.2989,0.6665-0.667c0-0.3682-0.2983-0.666-0.6665-0.666
									c-0.3682,0-0.6665,0.2978-0.6665,0.666C1.3335,7.7011,1.6318,8,2,8z M4.6665,8c0.3682,0,0.667-0.2989,0.667-0.667
									c0-0.3682-0.2988-0.666-0.667-0.666C4.2983,6.667,4,6.9648,4,7.333C4,7.7011,4.2983,8,4.6665,8z M7.3335,8
									C7.7017,8,8,7.7011,8,7.333c0-0.3682-0.2983-0.666-0.6665-0.666c-0.3682,0-0.667,0.2978-0.667,0.666
									C6.6665,7.7011,6.9653,8,7.3335,8z M10,8c0.3682,0,0.6665-0.2989,0.6665-0.667c0-0.3682-0.2983-0.666-0.6665-0.666
									c-0.36821,0-0.6665,0.2978-0.6665,0.666C9.3335,7.7011,9.63179,8,10,8z M8.6665,6.667c0.3682,0,0.667-0.2989,0.667-0.667
									c0-0.3682-0.2988-0.667-0.667-0.667S8,5.6318,8,6C8,6.3681,8.2983,6.667,8.6665,6.667z M6,6.667
									c0.3682,0,0.6665-0.2989,0.6665-0.667c0-0.3682-0.2983-0.667-0.6665-0.667C5.6318,5.333,5.3335,5.6318,5.3335,6
									C5.3335,6.3681,5.6318,6.667,6,6.667z M3.3335,6.667C3.7017,6.667,4,6.3681,4,6c0-0.3682-0.2983-0.667-0.6665-0.667
									S2.6665,5.6318,2.6665,6C2.6665,6.3681,2.9653,6.667,3.3335,6.667z M2,5.333c0.3682,0,0.6665-0.2979,0.6665-0.666
									C2.6665,4.2988,2.3682,4,2,4C1.6318,4,1.3335,4.2988,1.3335,4.667C1.3335,5.0351,1.6318,5.333,2,5.333z M4.6665,5.333
									c0.3682,0,0.667-0.2979,0.667-0.666C5.3335,4.2988,5.0347,4,4.6665,4C4.2983,4,4,4.2988,4,4.667
									C4,5.0351,4.2983,5.333,4.6665,5.333z M7.3335,5.333C7.7017,5.333,8,5.0351,8,4.667C8,4.2988,7.7017,4,7.3335,4
									c-0.3682,0-0.667,0.2988-0.667,0.667C6.6665,5.0351,6.9653,5.333,7.3335,5.333z M10,5.333
									c0.3682,0,0.6665-0.2979,0.6665-0.666C10.6665,4.2988,10.3682,4,10,4C9.63179,4,9.3335,4.2988,9.3335,4.667
									C9.3335,5.0351,9.63179,5.333,10,5.333z M8.6665,4c0.3682,0,0.667-0.2989,0.667-0.667c0-0.3682-0.2988-0.666-0.667-0.666
									S8,2.9648,8,3.333C8,3.7011,8.2983,4,8.6665,4z M6,4c0.3682,0,0.6665-0.2989,0.6665-0.667
									c0-0.3682-0.2983-0.666-0.6665-0.666c-0.3682,0-0.6665,0.2978-0.6665,0.666C5.3335,3.7011,5.6318,4,6,4z M3.3335,4
									C3.7017,4,4,3.7011,4,3.333c0-0.3682-0.2983-0.666-0.6665-0.666s-0.667,0.2978-0.667,0.666C2.6665,3.7011,2.9653,4,3.3335,4
									z M10,2.667c0.3682,0,0.6665-0.2989,0.6665-0.667c0-0.3682-0.2983-0.667-0.6665-0.667C9.63179,1.333,9.3335,1.6318,9.3335,2
									C9.3335,2.3681,9.63179,2.667,10,2.667z M7.3335,2.667C7.7017,2.667,8,2.3681,8,2c0-0.3682-0.2983-0.667-0.6665-0.667
									c-0.3682,0-0.667,0.2988-0.667,0.667C6.6665,2.3681,6.9653,2.667,7.3335,2.667z M4.6665,2.667
									c0.3682,0,0.667-0.2989,0.667-0.667c0-0.3682-0.2988-0.667-0.667-0.667C4.2983,1.333,4,1.6318,4,2
									C4,2.3681,4.2983,2.667,4.6665,2.667z M2,2.667c0.3682,0,0.6665-0.2989,0.6665-0.667c0-0.3682-0.2983-0.667-0.6665-0.667
									C1.6318,1.333,1.3335,1.6318,1.3335,2C1.3335,2.3681,1.6318,2.667,2,2.667z"/>
							</defs>
							<clipPath id="SVGID_46_">
								<use xlink:href="#SVGID_45_"  style="overflow:visible;"/>
							</clipPath>
							<g class="st19">
								<defs>
									<rect id="SVGID_47_" width="28" height="20"/>
								</defs>
								<clipPath id="SVGID_48_">
									<use xlink:href="#SVGID_47_"  style="overflow:visible;"/>
								</clipPath>
								<g class="st20">
									<g class="st21">
										<g>
											<defs>
												<rect id="SVGID_49_" x="0.00019" y="0.00041" width="28" height="20"/>
											</defs>
											<clipPath id="SVGID_50_">
												<use xlink:href="#SVGID_49_"  style="overflow:visible;"/>
											</clipPath>
											<g class="st22">
												<defs>
													<rect id="SVGID_51_" x="0.00019" y="0.00041" width="28" height="20"/>
												</defs>
												<clipPath id="SVGID_52_">
													<use xlink:href="#SVGID_51_"  style="overflow:visible;"/>
												</clipPath>
												<g style="clip-path:url(#SVGID_52_);">
													
														<image style="overflow:visible;" width="117" height="85" xlink:href="8A81DCB52E264EDC.jpg"  transform="matrix(0.24 0 0 0.24 -0.0087 -0.23811)">
													</image>
												</g>
											</g>
										</g>
									</g>
								</g>
								<g class="st23">
									<g>
										<defs>
											<rect id="SVGID_53_" x="0.00019" y="0.00041" width="28" height="20"/>
										</defs>
										<clipPath id="SVGID_54_">
											<use xlink:href="#SVGID_53_"  style="overflow:visible;"/>
										</clipPath>
										<g class="st24">
											<defs>
												<rect id="SVGID_55_" x="0.00019" y="0.00041" width="28" height="20"/>
											</defs>
											<clipPath id="SVGID_56_">
												<use xlink:href="#SVGID_55_"  style="overflow:visible;"/>
											</clipPath>
											<g style="clip-path:url(#SVGID_56_);">
												
													<image style="overflow:visible;" width="117" height="85" xlink:href="8A81DCB52E264EDB.jpg"  transform="matrix(0.24 0 0 0.24 -0.0087 -0.23811)">
												</image>
											</g>
										</g>
									</g>
								</g>
							</g>
						</g>
					</g>
				</g>
			</g>
		</g>
	</g>
</g>
</svg>
