<?xml version="1.0" encoding="utf-8"?>
<!-- Generator: Adobe Illustrator 25.2.0, SVG Export Plug-In . SVG Version: 6.00 Build 0)  -->
<svg version="1.1" id="Camada_1" xmlns="http://www.w3.org/2000/svg" xmlns:xlink="http://www.w3.org/1999/xlink" x="0px" y="0px"
	 viewBox="0 0 28 19.99997" style="enable-background:new 0 0 28 19.99997;" xml:space="preserve">
<style type="text/css">
	.st0{clip-path:url(#SVGID_2_);}
	.st1{clip-path:url(#SVGID_4_);enable-background:new    ;}
	.st2{clip-path:url(#SVGID_6_);}
	.st3{clip-path:url(#SVGID_8_);fill:#FFFFFF;}
	.st4{clip-path:url(#SVGID_10_);}
	.st5{clip-path:url(#SVGID_12_);fill:#DC1F2D;}
	.st6{clip-path:url(#SVGID_14_);}
	.st7{clip-path:url(#SVGID_16_);fill:#DC1F2D;}
	.st8{clip-path:url(#SVGID_18_);}
	.st9{clip-path:url(#SVGID_20_);fill:#FFD134;}
	.st10{clip-path:url(#SVGID_22_);}
	.st11{clip-path:url(#SVGID_24_);fill:#FDEBB0;}
	.st12{clip-path:url(#SVGID_26_);}
	.st13{clip-path:url(#SVGID_28_);fill:none;stroke:#A31E22;stroke-width:1.33333;stroke-miterlimit:10;}
	.st14{clip-path:url(#SVGID_30_);}
	.st15{clip-path:url(#SVGID_32_);fill:#A31E22;}
	.st16{clip-path:url(#SVGID_34_);}
	.st17{clip-path:url(#SVGID_36_);fill:#A31E22;}
	.st18{clip-path:url(#SVGID_38_);}
	.st19{clip-path:url(#SVGID_40_);fill:#A31E22;}
	.st20{clip-path:url(#SVGID_42_);}
	.st21{clip-path:url(#SVGID_44_);fill:#A31E22;}
</style>
<g>
	<g>
		<defs>
			<path id="SVGID_1_" d="M0,1.9907C0,0.8911,0.89989,0,1.99119,0h24.0176C27.10839,0,28,0.8984,28,1.9907v16.01855
				c0,1.09961-0.89991,1.99072-1.99121,1.99072H1.99119C0.89159,19.99997,0,19.10154,0,18.00925V1.9907z"/>
		</defs>
		<clipPath id="SVGID_2_">
			<use xlink:href="#SVGID_1_"  style="overflow:visible;"/>
		</clipPath>
		<g class="st0">
			<defs>
				<rect id="SVGID_3_" x="-220" y="-220" width="948" height="1228"/>
			</defs>
			<clipPath id="SVGID_4_">
				<use xlink:href="#SVGID_3_"  style="overflow:visible;"/>
			</clipPath>
			<g class="st1">
				<g>
					<defs>
						<rect id="SVGID_5_" width="28" height="19.99997"/>
					</defs>
					<clipPath id="SVGID_6_">
						<use xlink:href="#SVGID_5_"  style="overflow:visible;"/>
					</clipPath>
					<g class="st2">
						<defs>
							<rect id="SVGID_7_" width="28" height="19.99997"/>
						</defs>
						<clipPath id="SVGID_8_">
							<use xlink:href="#SVGID_7_"  style="overflow:visible;"/>
						</clipPath>
						<rect x="-5" y="-5" class="st3" width="38" height="29.99997"/>
					</g>
					<g class="st2">
						<defs>
							<rect id="SVGID_9_" width="28" height="5.3335"/>
						</defs>
						<clipPath id="SVGID_10_">
							<use xlink:href="#SVGID_9_"  style="overflow:visible;"/>
						</clipPath>
						<g class="st4">
							<defs>
								<rect id="SVGID_11_" width="28" height="19.99997"/>
							</defs>
							<clipPath id="SVGID_12_">
								<use xlink:href="#SVGID_11_"  style="overflow:visible;"/>
							</clipPath>
							<rect x="-5" y="-5" class="st5" width="38" height="15.33347"/>
						</g>
					</g>
					<g class="st2">
						<defs>
							<rect id="SVGID_13_" y="14.66648" width="28" height="5.33349"/>
						</defs>
						<clipPath id="SVGID_14_">
							<use xlink:href="#SVGID_13_"  style="overflow:visible;"/>
						</clipPath>
						<g class="st6">
							<defs>
								<rect id="SVGID_15_" width="28" height="19.99997"/>
							</defs>
							<clipPath id="SVGID_16_">
								<use xlink:href="#SVGID_15_"  style="overflow:visible;"/>
							</clipPath>
							<rect x="-5" y="9.66648" class="st7" width="38" height="15.33349"/>
						</g>
					</g>
					<g class="st2">
						<defs>
							<rect id="SVGID_17_" y="5.3335" width="28" height="9.33298"/>
						</defs>
						<clipPath id="SVGID_18_">
							<use xlink:href="#SVGID_17_"  style="overflow:visible;"/>
						</clipPath>
						<g class="st8">
							<defs>
								<rect id="SVGID_19_" width="28" height="19.99997"/>
							</defs>
							<clipPath id="SVGID_20_">
								<use xlink:href="#SVGID_19_"  style="overflow:visible;"/>
							</clipPath>
							<rect x="-5" y="0.3335" class="st9" width="38" height="19.33298"/>
						</g>
					</g>
					<g class="st2">
						<defs>
							<rect id="SVGID_21_" x="7.33349" y="9.33347" width="1.333" height="0.6665"/>
						</defs>
						<clipPath id="SVGID_22_">
							<use xlink:href="#SVGID_21_"  style="overflow:visible;"/>
						</clipPath>
						<g class="st10">
							<defs>
								<rect id="SVGID_23_" width="28" height="19.99997"/>
							</defs>
							<clipPath id="SVGID_24_">
								<use xlink:href="#SVGID_23_"  style="overflow:visible;"/>
							</clipPath>
							<rect x="2.33349" y="4.3335" class="st11" width="11.333" height="10.66647"/>
						</g>
					</g>
					<g class="st2">
						<defs>
							<path id="SVGID_25_" d="M5.72169,9.32712c-0.0303-0.36474,0.2524-0.66064,0.6196-0.66064h1.9844
								c0.3725,0,0.6504,0.28759,0.6191,0.66064l-0.167,2.00781c-0.0615,0.73536-0.7031,1.33155-1.4443,1.33155
								c-0.7363,0-1.3828-0.58985-1.4443-1.33155L5.72169,9.32712z"/>
						</defs>
						<clipPath id="SVGID_26_">
							<use xlink:href="#SVGID_25_"  style="overflow:visible;"/>
						</clipPath>
						<g class="st12">
							<defs>
								<rect id="SVGID_27_" width="28" height="19.99997"/>
							</defs>
							<clipPath id="SVGID_28_">
								<use xlink:href="#SVGID_27_"  style="overflow:visible;"/>
							</clipPath>
							<path class="st13" d="M5.72169,9.32712c-0.0303-0.36474,0.2524-0.66064,0.6196-0.66064h1.9844
								c0.3725,0,0.6504,0.28808,0.6191,0.66064l-0.167,2.00781c-0.0615,0.73536-0.7031,1.33155-1.4443,1.33155
								c-0.7363,0-1.3828-0.58985-1.4443-1.33155L5.72169,9.32712z"/>
						</g>
					</g>
					<g class="st2">
						<defs>
							<polygon id="SVGID_29_" points="6,9.99997 8.66649,9.99997 8.66649,10.66648 8,10.66648 7.33349,11.99997 6.66649,10.66648 
								6,10.66648 							"/>
						</defs>
						<clipPath id="SVGID_30_">
							<use xlink:href="#SVGID_29_"  style="overflow:visible;"/>
						</clipPath>
						<g class="st14">
							<defs>
								<rect id="SVGID_31_" width="28" height="19.99997"/>
							</defs>
							<clipPath id="SVGID_32_">
								<use xlink:href="#SVGID_31_"  style="overflow:visible;"/>
							</clipPath>
							<rect x="1" y="5" class="st15" width="12.66649" height="11.99997"/>
						</g>
					</g>
					<g class="st2">
						<defs>
							<path id="SVGID_33_" d="M4,8.66843c0-0.36914,0.29589-0.66846,0.66649-0.66846c0.3682,0,0.667,0.30616,0.667,0.66846v3.32959
								c0,0.36914-0.2959,0.66846-0.667,0.66846C4.29829,12.66648,4,12.36032,4,11.99802V8.66843z"/>
						</defs>
						<clipPath id="SVGID_34_">
							<use xlink:href="#SVGID_33_"  style="overflow:visible;"/>
						</clipPath>
						<g class="st16">
							<defs>
								<rect id="SVGID_35_" width="28" height="19.99997"/>
							</defs>
							<clipPath id="SVGID_36_">
								<use xlink:href="#SVGID_35_"  style="overflow:visible;"/>
							</clipPath>
							<rect x="-1" y="3" class="st17" width="11.33349" height="14.66648"/>
						</g>
					</g>
					<g class="st2">
						<defs>
							<path id="SVGID_37_" d="M9.33349,8.66843c0-0.36914,0.2959-0.66846,0.66651-0.66846
								c0.36819,0,0.66649,0.30616,0.66649,0.66846v3.32959c0,0.36914-0.2959,0.66846-0.66649,0.66846
								c-0.36821,0-0.66651-0.30616-0.66651-0.66846V8.66843z"/>
						</defs>
						<clipPath id="SVGID_38_">
							<use xlink:href="#SVGID_37_"  style="overflow:visible;"/>
						</clipPath>
						<g class="st18">
							<defs>
								<rect id="SVGID_39_" width="28" height="19.99997"/>
							</defs>
							<clipPath id="SVGID_40_">
								<use xlink:href="#SVGID_39_"  style="overflow:visible;"/>
							</clipPath>
							<rect x="4.33349" y="3" class="st19" width="11.333" height="14.66648"/>
						</g>
					</g>
					<g class="st2">
						<defs>
							<path id="SVGID_41_" d="M6,7.3335c0-0.3687,0.30569-0.667,0.67289-0.667h1.3208c0.3715,0,0.6728,0.2959,0.6728,0.667v0.33
								c0,0.18608-0.1431,0.33647-0.3267,0.33647h-2.0127C6.14649,7.99997,6,7.8574,6,7.6635V7.3335z"/>
						</defs>
						<clipPath id="SVGID_42_">
							<use xlink:href="#SVGID_41_"  style="overflow:visible;"/>
						</clipPath>
						<g class="st20">
							<defs>
								<rect id="SVGID_43_" width="28" height="19.99997"/>
							</defs>
							<clipPath id="SVGID_44_">
								<use xlink:href="#SVGID_43_"  style="overflow:visible;"/>
							</clipPath>
							<rect x="1" y="1.6665" class="st21" width="12.66649" height="11.33347"/>
						</g>
					</g>
				</g>
			</g>
		</g>
	</g>
</g>
</svg>
