<?xml version="1.0" encoding="utf-8"?>
<!-- Generator: Adobe Illustrator 25.2.0, SVG Export Plug-In . SVG Version: 6.00 Build 0)  -->
<svg version="1.1" id="Camada_1" xmlns="http://www.w3.org/2000/svg" xmlns:xlink="http://www.w3.org/1999/xlink" x="0px" y="0px"
	 viewBox="0 0 28 20" style="enable-background:new 0 0 28 20;" xml:space="preserve">
<style type="text/css">
	.st0{clip-path:url(#SVGID_2_);}
	.st1{clip-path:url(#SVGID_4_);enable-background:new    ;}
	.st2{clip-path:url(#SVGID_6_);}
	.st3{clip-path:url(#SVGID_8_);fill:#FFFFFF;}
	.st4{clip-path:url(#SVGID_10_);}
	.st5{clip-path:url(#SVGID_12_);fill:#09AA4B;}
	.st6{clip-path:url(#SVGID_14_);}
	.st7{clip-path:url(#SVGID_16_);fill:#FCD115;}
	.st8{clip-path:url(#SVGID_18_);}
	.st9{clip-path:url(#SVGID_20_);enable-background:new    ;}
	.st10{clip-path:url(#SVGID_22_);}
	.st11{clip-path:url(#SVGID_24_);fill:#263B80;}
	.st12{clip-path:url(#SVGID_24_);fill:none;stroke:#FFFFFF;stroke-width:1.33333;stroke-linecap:square;stroke-miterlimit:10;}
</style>
<g>
	<defs>
		<path id="SVGID_1_" d="M0,1.9912C0,0.8911,0.90038,0,1.99118,0h24.0176C27.10838,0,28,0.8979,28,1.9912v16.0176
			C28,19.1089,27.09958,20,26.00878,20H1.99118C0.89158,20,0,19.102,0,18.0088V1.9912z"/>
	</defs>
	<clipPath id="SVGID_2_">
		<use xlink:href="#SVGID_1_"  style="overflow:visible;"/>
	</clipPath>
	<g class="st0">
		<defs>
			<rect id="SVGID_3_" x="-604" y="-76" width="948" height="1228"/>
		</defs>
		<clipPath id="SVGID_4_">
			<use xlink:href="#SVGID_3_"  style="overflow:visible;"/>
		</clipPath>
		<g class="st1">
			<g>
				<defs>
					<rect id="SVGID_5_" width="28" height="20"/>
				</defs>
				<clipPath id="SVGID_6_">
					<use xlink:href="#SVGID_5_"  style="overflow:visible;"/>
				</clipPath>
				<g class="st2">
					<defs>
						<rect id="SVGID_7_" width="28" height="20"/>
					</defs>
					<clipPath id="SVGID_8_">
						<use xlink:href="#SVGID_7_"  style="overflow:visible;"/>
					</clipPath>
					<rect x="-5" y="-5" class="st3" width="38" height="30"/>
				</g>
				<g class="st2">
					<defs>
						<rect id="SVGID_9_" width="28" height="20"/>
					</defs>
					<clipPath id="SVGID_10_">
						<use xlink:href="#SVGID_9_"  style="overflow:visible;"/>
					</clipPath>
					<g class="st4">
						<defs>
							<rect id="SVGID_11_" width="28" height="20"/>
						</defs>
						<clipPath id="SVGID_12_">
							<use xlink:href="#SVGID_11_"  style="overflow:visible;"/>
						</clipPath>
						<rect x="-5" y="-5" class="st5" width="38" height="30"/>
					</g>
				</g>
				<g class="st2">
					<defs>
						<path id="SVGID_13_" d="M3.22848,10.3642c-0.31048-0.2011-0.3037-0.5312,0-0.7285l10.209-6.6055
							c0.31052-0.2011,0.8203-0.1962,1.125,0l10.209,6.6055c0.31052,0.2012,0.3037,0.5313,0,0.7285l-10.209,6.6055
							c-0.31048,0.2012-0.8203,0.1963-1.125,0L3.22848,10.3642z"/>
					</defs>
					<clipPath id="SVGID_14_">
						<use xlink:href="#SVGID_13_"  style="overflow:visible;"/>
					</clipPath>
					<g class="st6">
						<defs>
							<rect id="SVGID_15_" width="28" height="20"/>
						</defs>
						<clipPath id="SVGID_16_">
							<use xlink:href="#SVGID_15_"  style="overflow:visible;"/>
						</clipPath>
						<rect x="-2.002" y="-2.1192" class="st7" width="32.004" height="24.2383"/>
					</g>
				</g>
				<g class="st2">
					<defs>
						<circle id="SVGID_17_" cx="14" cy="10" r="4.667"/>
					</defs>
					<clipPath id="SVGID_18_">
						<use xlink:href="#SVGID_17_"  style="overflow:visible;"/>
					</clipPath>
					<g class="st8">
						<defs>
							<rect id="SVGID_19_" width="28" height="20"/>
						</defs>
						<clipPath id="SVGID_20_">
							<use xlink:href="#SVGID_19_"  style="overflow:visible;"/>
						</clipPath>
						<g class="st9">
							<g>
								<defs>
									<rect id="SVGID_21_" x="9" y="5" width="10" height="10"/>
								</defs>
								<clipPath id="SVGID_22_">
									<use xlink:href="#SVGID_21_"  style="overflow:visible;"/>
								</clipPath>
								<g class="st10">
									<defs>
										<rect id="SVGID_23_" x="9" y="5" width="10" height="10"/>
									</defs>
									<clipPath id="SVGID_24_">
										<use xlink:href="#SVGID_23_"  style="overflow:visible;"/>
									</clipPath>
									<rect x="4.333" y="0.333" class="st11" width="19.334" height="19.334"/>
									<path class="st12" d="M8.78028,8.7802C9.51268,8.187,11.877,8.749,14.084,9.3379
										c2.207,0.5888,4.50879,1.8227,5.09568,2.5468"/>
								</g>
							</g>
						</g>
					</g>
				</g>
			</g>
		</g>
	</g>
</g>
</svg>
